<svg id="レイヤー_1" data-name="レイヤー 1" xmlns="http://www.w3.org/2000/svg" viewBox="0 0 283.8 196.5"><defs><style>.cls-1{fill:black;}</style></defs><path class="cls-1" d="M453.2,145.25a9.75,9.75,0,0,1,3.45,9.93c-.27,1.08-.55,2.13-.81,3.14a12.28,12.28,0,0,1-1.22,2.94q-2.22,4.86-4.26,9.83a51.4,51.4,0,0,1-4.86,9.22q-3,5.07-6.38,9.73c-2.23,3.1-4.56,6.22-7,9.32a12.43,12.43,0,0,1-7.29,4.66q-4.45,1-9.53-2.63c.27-.54.58-1.08.92-1.62a7.28,7.28,0,0,1,1.11-1.42Q424.41,189,431,179.7a146.08,146.08,0,0,0,11.86-20.06,12.63,12.63,0,0,0,1.51-3.55c.34-1.28.65-2.53.92-3.75a4.55,4.55,0,0,0-.92-4,3.22,3.22,0,0,0-3.54-.92l-4.26,1.32a16.28,16.28,0,0,0-4.05,1.93q-5.28,3.24-11.45,6.38a42.29,42.29,0,0,0-10.84,7.81,169.08,169.08,0,0,0-13.88,15.7,142,142,0,0,0-11.66,17.54,2.56,2.56,0,0,0-.61,1,2.4,2.4,0,0,0,.2,1.62q3-4,6.29-8.21t6.28-8.41a101.34,101.34,0,0,1,8.72-10.23,11.61,11.61,0,0,1,6.48-3.55,127.38,127.38,0,0,0-18.24,19.86q-8.11,10.94-15.61,22.9a152.19,152.19,0,0,0-7.6,14.19A105.08,105.08,0,0,0,364,246.58a31.22,31.22,0,0,0-.6,12.77q.61,5.68,5.26,5.07a37.29,37.29,0,0,0,4.77-.71A17.26,17.26,0,0,0,378,262a113.63,113.63,0,0,0,20.06-12.57A103.54,103.54,0,0,0,415.3,232.2l.61-1.42a11.26,11.26,0,0,0-3.34-.71,10.47,10.47,0,0,1-3.24-.71,7.11,7.11,0,0,1-2.64-1.82,8.58,8.58,0,0,1-1.73-3.86q6.5-3.24,13.08-6.38t13.28-6.39a19.05,19.05,0,0,1,7.29-1.42c2.57.14,4.32,1.12,5.27,2.95s.88,3.94-.2,6.38a59.94,59.94,0,0,0-4.77,14.08c-1,4.94-1.79,10-2.33,15.31-.27,3.24-.6,6.42-1,9.52s-.81,6.36-1.22,9.73a69.87,69.87,0,0,0-1,12,55.93,55.93,0,0,0,1.42,12.37,8.22,8.22,0,0,1-5.37-1,7.61,7.61,0,0,1-3.55-4.25c-.67-1.62-1.29-3.27-1.82-5a36.19,36.19,0,0,1-1.22-4.75c-.27-3.38-.41-6.7-.41-9.94s-.06-6.49-.2-9.73v-4.46l-2.42,3.14c-.69.89-1.36,1.73-2,2.54l-6.79,8.41c-2.22,2.77-4.49,5.51-6.78,8.21a23.73,23.73,0,0,1-3,2.84c-1,.81-2.06,1.68-3.14,2.63a6.9,6.9,0,0,1-3.44,0,21.36,21.36,0,0,1,3.14-2.94q1.73-1.31,1.52-4.76c-1.75.68-3.48,1.39-5.16,2.13s-3.49,1.52-5.38,2.33a22.76,22.76,0,0,1-9.72,1.92,29.73,29.73,0,0,1-9.94-1.92,31.77,31.77,0,0,1-9.22-5.47,34.15,34.15,0,0,1-7.4-8.72A34.92,34.92,0,0,1,348,250.74a42.74,42.74,0,0,1,0-13.07,14.32,14.32,0,0,0,.31-1.53,11.83,11.83,0,0,0,.1-1.71,55.29,55.29,0,0,0,2.54-8.11,27.61,27.61,0,0,0,.5-8.52,10.07,10.07,0,0,0-2,.21,26.89,26.89,0,0,1,1.93-6.79c.87-2,1.79-3.95,2.74-6a80.66,80.66,0,0,1,6.48-11.76q3.65-5.46,7.7-10.74,4.67-6.08,9.43-12.26t9.62-12.06q3.45-3.84,6.8-7.3a28.69,28.69,0,0,1,7.8-5.67,28.8,28.8,0,0,0,4.25-2.83,48.91,48.91,0,0,1,4.26-3.05,5.26,5.26,0,0,1,2.53-1.22,28,28,0,0,0,2.94-.6A60.4,60.4,0,0,0,403.14,147a69.65,69.65,0,0,0-10.33,12.46l4.46-2.43a12.83,12.83,0,0,0,3.85-3.24A36.45,36.45,0,0,1,415.5,143c2.44-1,4.83-2,7.2-3a15,15,0,0,1,7.8-1.22q4.67.62,9.43,1.12a26.52,26.52,0,0,1,9.42,2.93A32.75,32.75,0,0,1,453.2,145.25Zm-65.56,19.56a4.71,4.71,0,0,0-.51-3.55q-7.69,9.12-14.9,18.55a221.43,221.43,0,0,0-13.47,19.76,67.88,67.88,0,0,0-4.26,8.31,39,39,0,0,0-2.63,9.32q1.62-3,3-6a56.11,56.11,0,0,1,3.24-5.78,64.2,64.2,0,0,0,3.36-6.38,11.67,11.67,0,0,1,4.35-5.17,7.1,7.1,0,0,0,.41,2.23l1.82-1.83a2.43,2.43,0,0,0,.41-2.43,12.58,12.58,0,0,0-1.22.92c-.41.33-.88.7-1.42,1.11a12.81,12.81,0,0,1,2.54-5.07c1.14-1.35,2.33-2.7,3.54-4a5.28,5.28,0,0,1,3.45-4.46,14.2,14.2,0,0,0,1-2,3.6,3.6,0,0,1,1.22-1.62l4.25-4.66,4.25-4.66A9,9,0,0,0,387.64,164.81Zm-6,39a.36.36,0,0,0-.4-.41,6.15,6.15,0,0,0-.62,1.12,6.58,6.58,0,0,1-.6,1.12c.26,0,.4.07.4.19s.14.28.41.41A6.39,6.39,0,0,0,381.66,203.82Zm-4.26-23.51q2.44-.6,2.44-3.65a7.1,7.1,0,0,0-1.32,1.73C378.18,179,377.81,179.64,377.4,180.31Zm-.2.2h-1.62l-.81,2c-.28.68-.54,1.42-.81,2.23Q377.2,184.17,377.2,180.51Zm-3.45,4.26a5.36,5.36,0,0,0-.91.1,4.5,4.5,0,0,1-.91.1,32.7,32.7,0,0,1-1.42,3.25q-.81,1.62-1.83,3.24a5.87,5.87,0,0,0,3.45-2.43A10.66,10.66,0,0,0,373.75,184.77ZM365,198.85a8.61,8.61,0,0,0,1-2.33,13.75,13.75,0,0,1-3.25,3A2.15,2.15,0,0,0,365,198.85Z" transform="translate(-173.1 -137.75)"/><path class="cls-1" d="M387.13,161.26a4.71,4.71,0,0,1,.51,3.55,9,9,0,0,1-1.53,2.53L381.86,172l-4.25,4.66a3.6,3.6,0,0,0-1.22,1.62,14.2,14.2,0,0,1-1,2,5.28,5.28,0,0,0-3.45,4.46c-1.21,1.35-2.4,2.7-3.54,4a12.81,12.81,0,0,0-2.54,5.07,11.67,11.67,0,0,0-4.35,5.17,64.2,64.2,0,0,1-3.36,6.38,56.11,56.11,0,0,0-3.24,5.78q-1.41,2.94-3,6a39,39,0,0,1,2.63-9.32,67.88,67.88,0,0,1,4.26-8.31,221.43,221.43,0,0,1,13.47-19.76Q379.43,170.38,387.13,161.26Z" transform="translate(-173.1 -137.75)"/><path class="cls-1" d="M381.26,203.41a.36.36,0,0,1,.4.41,6.39,6.39,0,0,1-.81,2.43c-.27-.13-.41-.27-.41-.41s-.14-.19-.4-.19a6.58,6.58,0,0,0,.6-1.12A6.15,6.15,0,0,1,381.26,203.41Z" transform="translate(-173.1 -137.75)"/><path class="cls-1" d="M379.84,176.66q0,3-2.44,3.65c.41-.67.78-1.32,1.12-1.92A7.1,7.1,0,0,1,379.84,176.66Z" transform="translate(-173.1 -137.75)"/><path class="cls-1" d="M375.58,180.51h1.62q0,3.66-3.24,4.26c.27-.81.53-1.55.81-2.23Z" transform="translate(-173.1 -137.75)"/><path class="cls-1" d="M372.84,184.87a5.36,5.36,0,0,1,.91-.1,10.66,10.66,0,0,1-1.62,4.26,5.87,5.87,0,0,1-3.45,2.43q1-1.62,1.83-3.24a32.7,32.7,0,0,0,1.42-3.25A4.5,4.5,0,0,0,372.84,184.87Z" transform="translate(-173.1 -137.75)"/><path class="cls-1" d="M368.49,191.86a2.43,2.43,0,0,1-.41,2.43l-1.82,1.83a7.1,7.1,0,0,1-.41-2.23c.54-.41,1-.78,1.42-1.11A12.58,12.58,0,0,1,368.49,191.86Z" transform="translate(-173.1 -137.75)"/><path class="cls-1" d="M366.06,196.52a8.61,8.61,0,0,1-1,2.33,2.15,2.15,0,0,1-2.23.72A13.75,13.75,0,0,0,366.06,196.52Z" transform="translate(-173.1 -137.75)"/><path class="cls-1" d="M330.51,287a1.27,1.27,0,0,1,0,1.6,14.74,14.74,0,1,1-20.84-20.85s4-3.93,5.13-5.14c-1.29-1.36-8.61-8.62-8.61-8.62a1.11,1.11,0,0,1-.31-.82,1,1,0,0,1,.31-.76,1.09,1.09,0,0,1,1.58,0l8.69,8.61c.84-.83,2-2.11,2-2.11a5.24,5.24,0,1,1,7.41,7.4,5.28,5.28,0,0,1-3.71,1.5,5.13,5.13,0,0,1-3.7-1.5l-2-2.12-5.21,5.21a12.45,12.45,0,0,0,17.6,17.6A1.19,1.19,0,0,1,330.51,287Zm-6.27-22.28a2.93,2.93,0,0,0-4.15-4.15l-2,2c.83.82,2,2.11,2,2.11a3.08,3.08,0,0,0,2.11.83A2.91,2.91,0,0,0,324.24,264.72Z" transform="translate(-173.1 -137.75)"/><path class="cls-1" d="M286.67,202.15a14.37,14.37,0,0,1,.61,5.88,15.16,15.16,0,0,1-1.73,5.67q-1.41,2.24-2.73,4.26a22.58,22.58,0,0,1-2.94,3.65q-3,3.44-6.28,6.68t-6.29,6.49a17.37,17.37,0,0,1-3.85,3c-3.11,1.76-5.61,2.31-7.49,1.63s-3.86-2.78-5.88-6.29l4.86-4.87c1.62-1.61,3.31-3.17,5.06-4.66q3.45-4,6.69-7.9l6.49-7.7a10.87,10.87,0,0,0,1.42-2.43c.4-.95.74-1.83,1-2.64a2.86,2.86,0,0,0,.11-2.43,2,2,0,0,0-1.94-1A17.43,17.43,0,0,0,261,204a2.14,2.14,0,0,0-.21,2c.27.8-.12,1.34-1.21,1.61a19,19,0,0,0-1.93.91,14.73,14.73,0,0,1-1.92.91,75.26,75.26,0,0,0-10.33,9.84q-4.68,5.37-9.33,11.05c-1.09,1.21-2.1,2.43-3,3.64s-1.89,2.37-2.83,3.45c-1.09,1.62-2.11,3.28-3,5s-2,3.34-3,5A22.49,22.49,0,0,1,230,237.22c.14-.68.27-1.39.41-2.13s.33-1.66.6-2.74a15,15,0,0,1-1.72,1.52,4.41,4.41,0,0,0-1.12,1.12c-1.75,2.7-3.48,5.4-5.16,8.1s-3.48,5.47-5.37,8.31c-1.22,1.89-2.41,3.85-3.55,5.87s-2.33,4.06-3.54,6.09a106.69,106.69,0,0,0-14.6,47c-.68-1.22-1.22-2.19-1.62-2.94a25,25,0,0,0-1.62-2.53,21.57,21.57,0,0,0-.51,8c.34,2.62.58,5.43.71,8.4a3.39,3.39,0,0,1-1.52-2A15.64,15.64,0,0,1,191,317c-.07-.74-.13-1.48-.19-2.22a3.8,3.8,0,0,0-.72-1.93c-.27,1.22-.47,2.16-.6,2.84a9.49,9.49,0,0,0-.21,1.93,5.19,5.19,0,0,0,.41,1.92c.27.68.67,1.62,1.22,2.84a18.19,18.19,0,0,0,6.28.1,40.56,40.56,0,0,0,6.49-1.72A98.64,98.64,0,0,0,216,314.23q5.86-3.64,11.55-7.5,5.88-4.05,11.55-8.31t11.35-8.31A29.12,29.12,0,0,1,253,288.6a14.92,14.92,0,0,0,2.33-1.53,52.79,52.79,0,0,0,4.16-3.34,52.59,52.59,0,0,1,4.15-3.34q4.45-3.24,8.72-6.49c2.84-2.16,5.8-4.26,8.92-6.28a.57.57,0,0,1,.6-.1,3.83,3.83,0,0,0,.82.1,4.39,4.39,0,0,1,.1,3,10,10,0,0,1-1.52,2.43c-.81,1.21-1.59,2.43-2.33,3.65s-1.53,2.43-2.33,3.65a3.9,3.9,0,0,1-.91,1.21,10.81,10.81,0,0,0-.91.81c-.68.55-1.3,1-1.83,1.52a13.6,13.6,0,0,0-1.63,1.72,204.25,204.25,0,0,1-17.52,16.73q-9,7.59-18.75,14.48a8.43,8.43,0,0,0-2.53,2.33,9.55,9.55,0,0,1-2.33,2.33,84.31,84.31,0,0,1-12.37,7.81,42.62,42.62,0,0,1-14,4.36,30.05,30.05,0,0,1-10.44.2,19.53,19.53,0,0,1-9.82-4.86,32,32,0,0,1-8.52-12,23.28,23.28,0,0,1-1.21-15.41,89.29,89.29,0,0,1,3.65-12.15c1.49-3.93,3-7.84,4.66-11.76q5.26-11.36,11.24-22t12.67-21A105.61,105.61,0,0,1,216.24,222c3.65-3.93,7.43-7.77,11.35-11.56a130,130,0,0,1,10.54-8.72q5.48-4,11.14-7.49a29.64,29.64,0,0,1,9.13-3.95c3.1-.75,6.28-1.39,9.52-1.93a2.82,2.82,0,0,1,1.93.3c.6.34,1.18.65,1.72.92,1.48.67,2.84,1.35,4.05,2a26.57,26.57,0,0,0,4.05,1.82,12.51,12.51,0,0,1,4.26,3.55A16.59,16.59,0,0,1,286.67,202.15Zm-105,81.6a.41.41,0,0,0,.1-.31.59.59,0,0,0-.19.4v.2a4.81,4.81,0,0,0-2.54,2.34,16.3,16.3,0,0,0-1.11,3.14,2.89,2.89,0,0,0,.8.61c.41-1.08.85-2.13,1.32-3.14s1-2,1.53-2.95A.38.38,0,0,1,181.62,283.75Z" transform="translate(-173.1 -137.75)"/><path class="cls-1" d="M181.72,283.44a.41.41,0,0,1-.1.31.38.38,0,0,0-.09.29v-.2A.59.59,0,0,1,181.72,283.44Z" transform="translate(-173.1 -137.75)"/><path class="cls-1" d="M181.53,284C181,285,180.47,286,180,287s-.91,2.06-1.32,3.14a2.89,2.89,0,0,1-.8-.61,16.3,16.3,0,0,1,1.11-3.14A4.81,4.81,0,0,1,181.53,284Z" transform="translate(-173.1 -137.75)"/></svg>