<svg id="レイヤー_1" data-name="レイヤー 1" xmlns="http://www.w3.org/2000/svg" viewBox="0 0 640.08 116.52"><defs><style>.cls-1{font-size:64.17px;font-family:Senobi-Gothic-Regular, Senobi Gothic;}.cls-1,.cls-2{fill:#fff;}.cls-3{fill:none;stroke:#fff;stroke-miterlimit:10;stroke-width:5px;}</style></defs><text class="cls-1" transform="translate(142.6 80.27)">WATCH VIDEO</text><path class="cls-2" d="M146.33,541.33a58.26,58.26,0,1,0,58.26,58.26A58.26,58.26,0,0,0,146.33,541.33Zm19.58,62.35L136,621a4.72,4.72,0,0,1-7.08-4.09V582.31a4.72,4.72,0,0,1,7.08-4.09l29.93,17.28A4.72,4.72,0,0,1,165.91,603.68Z" transform="translate(-88.07 -541.33)"/><path class="cls-3" d="M141.71,653.82H667.39l0,0c32.14,0,58.23-24.47,58.23-54.61s-26.09-54.66-58.23-54.66l0,0H141.71" transform="translate(-88.07 -541.33)"/></svg>