<svg id="レイヤー_1" data-name="レイヤー 1" xmlns="http://www.w3.org/2000/svg" viewBox="0 0 622.5 118"><defs><style>.cls-1{fill:#fff;}.cls-2{fill:#0089b4;}</style></defs><path class="cls-1" d="M886,328a56,56,0,0,1,0,112H381.5a56,56,0,0,1,0-112H886m0-3H381.5a59,59,0,0,0-59,59h0a59,59,0,0,0,59,59H886a59,59,0,0,0,59-59h0a59,59,0,0,0-59-59Z" transform="translate(-322.5 -325)"/><path class="cls-1" d="M469.44,358.42h8L485.24,395h.14l9.67-36.59h5.47L510.16,395h.14l7.87-36.59h8l-12.44,51.47h-6.33l-9.5-37.12h-.14l-9.54,37.12h-6.29Z" transform="translate(-322.5 -325)"/><path class="cls-1" d="M559.63,398.38H540.72l-3.83,11.51h-8L547,358.42h6.33l18.12,51.47h-8Zm-2.15-6.91L550.26,369h-.14l-7.21,22.52Z" transform="translate(-322.5 -325)"/><path class="cls-1" d="M586.65,365.34H573v-6.92h34.89v6.92H594.19v44.55h-7.54Z" transform="translate(-322.5 -325)"/><path class="cls-1" d="M648,395.51q-1.65,7.15-6.26,11a17.5,17.5,0,0,1-11.26,3.8,17.95,17.95,0,0,1-15.62-9.24c-.36-.78-.69-1.52-1-2.23a15.1,15.1,0,0,1-.68-2.75,89.34,89.34,0,0,1-.51-11.93,89.34,89.34,0,0,1,.51-12,14.18,14.18,0,0,1,1.68-4.9,17.45,17.45,0,0,1,5.81-6.36,18,18,0,0,1,21.57,1.51A19.55,19.55,0,0,1,648,373.22h-8a11.43,11.43,0,0,0-3.36-5.3,9.73,9.73,0,0,0-6.16-2.16,10.1,10.1,0,0,0-4.59,1.1,9.36,9.36,0,0,0-3.15,2.65,8.62,8.62,0,0,0-2,4.28,64.59,64.59,0,0,0-.54,10.37,63,63,0,0,0,.54,10.29,8.67,8.67,0,0,0,2,4.35,8.94,8.94,0,0,0,3.15,2.58,8.65,8.65,0,0,0,4.59,1.17q6.38,0,9.52-7Z" transform="translate(-322.5 -325)"/><path class="cls-1" d="M681.85,387.4H662.08v22.49h-7.55V358.42h7.55v22.07h19.77V358.42h7.55v51.47h-7.55Z" transform="translate(-322.5 -325)"/><path class="cls-1" d="M713.52,358.42h8l11.3,39.21H733l11.33-39.21h8l-16.45,51.47h-5.88Z" transform="translate(-322.5 -325)"/><path class="cls-1" d="M758.92,358.42h7.54v51.47h-7.54Z" transform="translate(-322.5 -325)"/><path class="cls-1" d="M777.56,358.42H795q10.13.07,15.19,8.68a16,16,0,0,1,2.29,6.08,108.72,108.72,0,0,1,.37,11,76.67,76.67,0,0,1-.58,11.57,13.35,13.35,0,0,1-.82,3,30,30,0,0,1-1.4,2.65,17.68,17.68,0,0,1-6.09,6,16.92,16.92,0,0,1-9.47,2.54H777.56Zm7.54,44.13h9q6.38,0,9.25-4.49a8.8,8.8,0,0,0,1.61-4.21c.2-1.68.3-4.81.3-9.41s-.1-7.69-.3-9.62a9,9,0,0,0-2-4.71,9.92,9.92,0,0,0-8.9-4.35h-9Z" transform="translate(-322.5 -325)"/><path class="cls-1" d="M823.1,358.42h31.84v7.34h-24.3v14.73h20.75v6.91H830.64v15.15h24.3v7.34H823.1Z" transform="translate(-322.5 -325)"/><path class="cls-1" d="M861.61,384.16a89.6,89.6,0,0,1,.51-12,14.51,14.51,0,0,1,1.68-4.92,17.38,17.38,0,0,1,5.81-6.33,16.77,16.77,0,0,1,9.81-2.88A17.08,17.08,0,0,1,895,367.25a12.06,12.06,0,0,1,1.74,4.9,101.15,101.15,0,0,1,.45,12,101.15,101.15,0,0,1-.45,11.93,12.24,12.24,0,0,1-1.74,5,16.59,16.59,0,0,1-5.67,6.28,17.4,17.4,0,0,1-9.91,3,17.91,17.91,0,0,1-15.62-9.24c-.37-.78-.7-1.52-1-2.23a14.25,14.25,0,0,1-.69-2.75A89.34,89.34,0,0,1,861.61,384.16Zm7.55,0a63,63,0,0,0,.54,10.29,8.67,8.67,0,0,0,2,4.35,8.94,8.94,0,0,0,3.15,2.58,8.65,8.65,0,0,0,4.59,1.17,9.09,9.09,0,0,0,4.69-1.17,8.44,8.44,0,0,0,3-2.58,9.07,9.07,0,0,0,2-4.35,64.94,64.94,0,0,0,.52-10.29,66.61,66.61,0,0,0-.52-10.37,10.79,10.79,0,0,0-5-6.93,10.7,10.7,0,0,0-4.69-1.1,10.16,10.16,0,0,0-4.59,1.1,9.56,9.56,0,0,0-3.15,2.65,8.62,8.62,0,0,0-2,4.28A64.59,64.59,0,0,0,869.16,384.16Z" transform="translate(-322.5 -325)"/><circle class="cls-2" cx="64" cy="59" r="43.5"/><path class="cls-1" d="M371.09,365.4v36.79a3.83,3.83,0,0,0,5.75,3.31l31.86-18.39a3.83,3.83,0,0,0,0-6.63l-31.86-18.4A3.83,3.83,0,0,0,371.09,365.4Z" transform="translate(-322.5 -325)"/></svg>